<?xml version="1.0" encoding="UTF-8"?>
<svg width="512" height="512" viewBox="0 0 512 512" fill="none" xmlns="http://www.w3.org/2000/svg">
  <circle cx="256" cy="256" r="256" fill="#0B1120"/>
  <path d="M256 50C141.3 50 48 143.3 48 258s93.3 208 208 208 208-93.3 208-208S370.7 50 256 50zm0 374.4c-91.9 0-166.4-74.5-166.4-166.4S164.1 91.6 256 91.6 422.4 166.1 422.4 258 347.9 424.4 256 424.4z" fill="url(#paint0_linear)"/>
  <path d="M256 133.2c-68.9 0-124.8 55.9-124.8 124.8S187.1 382.8 256 382.8 380.8 326.9 380.8 258 324.9 133.2 256 133.2zm0 208c-45.9 0-83.2-37.3-83.2-83.2s37.3-83.2 83.2-83.2 83.2 37.3 83.2 83.2-37.3 83.2-83.2 83.2z" fill="url(#paint1_linear)"/>
  <path d="M256 216.4c-22.9 0-41.6 18.7-41.6 41.6s18.7 41.6 41.6 41.6 41.6-18.7 41.6-41.6-18.7-41.6-41.6-41.6z" fill="url(#paint2_linear)"/>
  <defs>
    <linearGradient id="paint0_linear" x1="48" y1="258" x2="464" y2="258" gradientUnits="userSpaceOnUse">
      <stop offset="0" stop-color="#60A5FA"/>
      <stop offset="1" stop-color="#A78BFA"/>
    </linearGradient>
    <linearGradient id="paint1_linear" x1="131.2" y1="258" x2="380.8" y2="258" gradientUnits="userSpaceOnUse">
      <stop offset="0" stop-color="#F59E0B"/>
      <stop offset="1" stop-color="#EF4444"/>
    </linearGradient>
    <linearGradient id="paint2_linear" x1="214.4" y1="258" x2="297.6" y2="258" gradientUnits="userSpaceOnUse">
      <stop offset="0" stop-color="#10B981"/>
      <stop offset="1" stop-color="#3B82F6"/>
    </linearGradient>
  </defs>
</svg>
